<svg xmlns="http://www.w3.org/2000/svg" width="314.175" height="261.351" viewBox="0 0 314.175 261.351">
  <g id="グループ_136" data-name="グループ 136" transform="matrix(0.956, 0.292, -0.292, 0.956, 20.675, -20.115)" opacity="0.15">
    <g id="グループ_17" data-name="グループ 17" transform="translate(0 0)">
      <g id="グループ_2" data-name="グループ 2" transform="translate(72.837 135.272)">
        <g id="グループ_1" data-name="グループ 1" transform="translate(0 0)">
          <path id="パス_1" data-name="パス 1" d="M26.484,43.424a41.364,41.364,0,0,0-4.528-10.943l-.34.579c-2.234,3.8-6.221,6.522-13.871,2.031-5.954-3.5-9.957-8.516-6.413-14.552,2.72-4.632,8.735-5.881,16.467-1.341.621.365,1.258.8,1.854,1.2,1.68-3.239,3.522-6.661,4.712-8.686C25.847,9.188,26.922,7.262,27.9,5.5A32.163,32.163,0,0,0,30.463,0l7.443,4.37c-1.008,1.243-2.322,3.2-3.473,4.968-.478.718-.939,1.5-1.4,2.29,3.316,1.837,7.96,4.341,11.421,5.929L41.23,23.614c-3.478-1.653-8.248-4.231-11.563-6.066-1.252,2.323-2.738,5.231-4.126,7.974a36.732,36.732,0,0,1,8.218,14.223Zm-9.95-17.241a21.72,21.72,0,0,0-2.914-2.044c-2.6-1.528-4.769-1.632-5.642-.144-1.092,1.861.583,3.457,2.816,4.768,2.439,1.432,3.75.812,5.3-1.834Z" transform="translate(0 9.719)" fill="#60a484"/>
          <path id="パス_2" data-name="パス 2" d="M9.681,1.084A54.272,54.272,0,0,0,7.533,6.906c2.16-1.981,5.257-3.8,8.983-3.27,5.138.725,8.568,6.226,7.424,14.328C22.5,28.2,15.595,32.394,5.5,32.814L2.918,27.322c8.245-.129,13.89-1.694,15.089-10.2.766-5.426-.686-8.213-3.218-8.571C10.7,7.98,6.34,13.784,5.677,18.487a29.725,29.725,0,0,0-.268,3.469L0,21.562A41.977,41.977,0,0,1,.4,15.382a86.841,86.841,0,0,1,2.552-11.3A36.39,36.39,0,0,0,3.821,0Z" transform="translate(57.378 28.35)" fill="#60a484"/>
          <path id="パス_3" data-name="パス 3" d="M25.632,9.739A76.954,76.954,0,0,1,17.4,13.244c0,2.069.032,4.232,0,6.163a157.554,157.554,0,0,1-2.2,23.255l-8.411-.741c1.654-5.228,2.926-15.935,3.1-22.782.022-1.139.079-2.336.055-3.464-.782.237-1.574.427-2.319.606-2.376.572-4.171.9-5.778,1.192L0,10.573a49.635,49.635,0,0,0,6.055-1.06c1.212-.291,2.459-.64,3.661-.978A17.073,17.073,0,0,0,9.547,6.6,25.923,25.923,0,0,0,8.444,1.4L17.129,0c-.025,1.533.046,3.883.071,5.011l0,.838c2.287-.945,4.553-1.983,6.749-3.1Zm3.085,14.689A17.235,17.235,0,0,0,29,28.255c.459,1.911,1.962,2.832,6.016,1.857a60.345,60.345,0,0,0,9.646-3.352l1.434,7.2a78.107,78.107,0,0,1-9.491,2.97C28.539,38.864,23.778,36.9,22.647,32.2a33.742,33.742,0,0,1-.74-6.773ZM22.3,13.5c2.59-.919,5.983-1.98,9.013-2.707,2.562-.616,5.393-1.148,8.256-1.541l1.472,6.745a68.857,68.857,0,0,0-8.161,1.321,72.641,72.641,0,0,0-9.013,2.707Z" transform="translate(92.892 19.341)" fill="#60a484"/>
          <path id="パス_4" data-name="パス 4" d="M18.577,7.176A30.2,30.2,0,0,0,33.7,14.769l-.743,5.9q-2.091-.651-4.377-1.568c4.688,6.3,5.7,14.626-1.939,20.145-5,3.614-10.866,2.982-14.63-2.228A22.515,22.515,0,0,1,8.227,22.852a39.833,39.833,0,0,0-2.834,2.814c-.536.567-.895,1.006-1.477,1.7L0,23.252a20.159,20.159,0,0,0,1.653-1.329,69.236,69.236,0,0,0,8.976-9.095l4.155,2.945a9.883,9.883,0,0,0-.909,1.737c-.882,3.206-1.108,10.939,2.249,15.587a4.849,4.849,0,0,0,7.242,1.169c5.478-3.957,3.829-12.726-6.416-21.544-.571-.355-1.113-.729-1.7-1.113Zm4.248,2.2a37.939,37.939,0,0,0-4.733-3.249l2.027-2.681A52.719,52.719,0,0,1,24.8,6.689Zm2.584-3.534a41.167,41.167,0,0,0-4.741-3.2L22.584,0a43.673,43.673,0,0,1,4.833,3.133Z" transform="translate(139.877 0)" fill="#60a484"/>
        </g>
      </g>
      <path id="パス_5" data-name="パス 5" d="M79.866,39.934A39.933,39.933,0,1,0,27.313,77.819L39.933,114.5l12.62-36.681A39.94,39.94,0,0,0,79.866,39.934Z" transform="translate(119.896 0)" fill="#e16b2e"/>
      <ellipse id="楕円形_1" data-name="楕円形 1" cx="21.745" cy="21.745" rx="21.745" ry="21.745" transform="translate(138.083 18.265)" fill="#fff"/>
      <g id="グループ_9" data-name="グループ 9" transform="translate(261.052 14.708)">
        <g id="グループ_5" data-name="グループ 5" transform="translate(0 61.517)">
          <g id="グループ_3" data-name="グループ 3" transform="translate(8.53 30.745)">
            <path id="パス_6" data-name="パス 6" d="M9.653,26.609,0,23.34S1.564,10.968,2.32,10.146,2.951,4.011,9.44.807,18.308,4.99,18.375,4.77a15.087,15.087,0,0,1-.455,9.377C16.045,18.619,9.653,26.609,9.653,26.609Z" transform="translate(3.981 0)" fill="#ebda21"/>
            <path id="パス_7" data-name="パス 7" d="M12.486,3.441,2.744,0S-.87,5.588.2,8.642s4.585,5,7.706,3.31S12.486,3.441,12.486,3.441Z" transform="translate(0 25.841)" fill="#ebda21"/>
          </g>
          <g id="グループ_4" data-name="グループ 4" transform="translate(0 0)">
            <path id="パス_8" data-name="パス 8" d="M9.309,26.434,0,22.277S2.5,10.018,3.317,9.263,4.415,3.17,11.09.549s8.461,5,8.545,4.788A15.335,15.335,0,0,1,18.459,14.7C16.257,19.008,9.309,26.434,9.309,26.434Z" transform="translate(4.719 0)" fill="#ebda21"/>
            <path id="パス_9" data-name="パス 9" d="M12.684,4.339,3.3,0S-.711,5.272.111,8.432s4.155,5.43,7.377,4.02S12.684,4.339,12.684,4.339Z" transform="translate(0 24.672)" fill="#ebda21"/>
          </g>
        </g>
        <g id="グループ_8" data-name="グループ 8" transform="translate(25.671 0)">
          <g id="グループ_6" data-name="グループ 6" transform="translate(16.88 27.561)">
            <path id="パス_10" data-name="パス 10" d="M11.827,26.527,1.642,26.169S-.413,13.87.075,12.864-1.083,6.808,4.212,1.874s9.7,1.458,9.7,1.229a15.084,15.084,0,0,1,2.257,9.112C15.656,17.038,11.827,26.527,11.827,26.527Z" transform="translate(0 0)" fill="#ebda21"/>
            <path id="パス_11" data-name="パス 11" d="M11.132.5.812,0S-1.044,6.391.856,9.009s5.827,3.472,8.331.957S11.132.5,11.132.5Z" transform="translate(0.363 28.919)" fill="#ebda21"/>
          </g>
          <g id="グループ_7" data-name="グループ 7" transform="translate(0 0)">
            <path id="パス_12" data-name="パス 12" d="M10.829,26.809.718,25.5S-.4,13.038.157,12.082-.541,5.93,5.1,1.5s9.542,2.36,9.561,2.132a15.328,15.328,0,0,1,1.563,9.3C15.351,17.7,10.829,26.809,10.829,26.809Z" transform="translate(1.203 0)" fill="#ebda21"/>
            <path id="パス_13" data-name="パス 13" d="M11.486,1.46,1.252,0S-1.077,6.2.618,8.992,6.157,13,8.839,10.724,11.486,1.46,11.486,1.46Z" transform="translate(0 28.202)" fill="#ebda21"/>
          </g>
        </g>
      </g>
      <g id="グループ_16" data-name="グループ 16" transform="translate(0 16.402)">
        <g id="グループ_12" data-name="グループ 12" transform="translate(28.129 61.297)">
          <g id="グループ_10" data-name="グループ 10" transform="translate(0 30.824)">
            <path id="パス_14" data-name="パス 14" d="M9.477,26.572l9.612-3.388s-1.717-12.351-2.483-13.165S15.9,3.893,9.372.769.555,5.061.486,4.843a15.086,15.086,0,0,0,.572,9.37C2.986,18.662,9.477,26.572,9.477,26.572Z" transform="translate(0 0)" fill="#ebda21"/>
            <path id="パス_15" data-name="パス 15" d="M0,3.561,9.7,0s3.682,5.544,2.653,8.61-4.522,5.055-7.665,3.4S0,3.561,0,3.561Z" transform="translate(10.658 25.669)" fill="#ebda21"/>
          </g>
          <g id="グループ_11" data-name="グループ 11" transform="translate(6.406 0)">
            <path id="パス_16" data-name="パス 16" d="M10.824,26.378l9.257-4.271S17.425,9.879,16.6,9.134,15.431,3.056,8.724.517.324,5.623.24,5.41a15.32,15.32,0,0,0,1.291,9.343C3.785,19.038,10.824,26.378,10.824,26.378Z" transform="translate(0 0)" fill="#ebda21"/>
            <path id="パス_17" data-name="パス 17" d="M0,4.454,9.329,0s4.077,5.223,3.294,8.392S8.536,13.872,5.3,12.5,0,4.454,0,4.454Z" transform="translate(12.199 24.484)" fill="#ebda21"/>
          </g>
        </g>
        <g id="グループ_15" data-name="グループ 15" transform="translate(0 0)">
          <g id="グループ_13" data-name="グループ 13" transform="translate(0 27.746)">
            <path id="パス_18" data-name="パス 18" d="M4.593,26.569l10.18-.484s1.9-12.324,1.4-13.323S17.26,6.691,11.9,1.824,2.226,3.4,2.223,3.173A15.091,15.091,0,0,0,.079,12.312C.649,17.128,4.593,26.569,4.593,26.569Z" transform="translate(0 0)" fill="#ebda21"/>
            <path id="パス_19" data-name="パス 19" d="M.035.627,10.348,0s1.936,6.368.068,9.009S4.633,12.553,2.1,10.069.035.627.035.627Z" transform="translate(4.926 28.828)" fill="#ebda21"/>
          </g>
          <g id="グループ_14" data-name="グループ 14" transform="translate(15.15 0)">
            <path id="パス_20" data-name="パス 20" d="M5.78,26.831,15.874,25.4s.968-12.476.4-13.425S16.891,5.814,11.2,1.456,1.685,3.934,1.664,3.706a15.318,15.318,0,0,0-1.447,9.32C1.146,17.778,5.78,26.831,5.78,26.831Z" transform="translate(0 0)" fill="#ebda21"/>
            <path id="パス_21" data-name="パス 21" d="M0,1.587,10.216,0s2.4,6.174.744,8.984-5.49,4.076-8.2,1.833S0,1.587,0,1.587Z" transform="translate(6.362 28.09)" fill="#ebda21"/>
          </g>
        </g>
      </g>
    </g>
    <path id="パス_22" data-name="パス 22" d="M206.452,0A166.215,166.215,0,0,1,100.943,37.571,166.18,166.18,0,0,1,0,3.6" transform="translate(58.885 172.773)" fill="none" stroke="#d6672f" stroke-linecap="round" stroke-miterlimit="10" stroke-width="4" stroke-dasharray="10 10"/>
    <path id="パス_23" data-name="パス 23" d="M147.6,0A106.948,106.948,0,0,1,73.8,29.4,106.943,106.943,0,0,1,0,0" transform="translate(86.029 117.924)" fill="none" stroke="#d6672f" stroke-linecap="round" stroke-miterlimit="10" stroke-width="4" stroke-dasharray="10 10"/>
  </g>
</svg>
