<svg id="グループ_24" data-name="グループ 24" xmlns="http://www.w3.org/2000/svg" width="349.483" height="349.483" viewBox="0 0 349.483 349.483">
  <rect id="長方形_10" data-name="長方形 10" width="349.483" height="349.483" fill="none"/>
  <g id="グループ_21" data-name="グループ 21" transform="translate(59.283 27.316)">
    <path id="パス_24" data-name="パス 24" d="M271.563,1226.381c-1.268,1.761-10.24,12.421-10.24,12.421l-5.093-3.671,2.792-3.872s-6.025-.594-8.058-.456-9.164-3.393-10.27-6.333a4.212,4.212,0,0,1,1.517-4.79s.005,2.679,5.519,3.977,18.057-3.578,18.057-3.578Z" transform="translate(-240.422 -946.247)" fill="#2e2a29"/>
    <path id="パス_25" data-name="パス 25" d="M433.468,639.047,437,666.775l1.513,40.835L469,686.741s5.743,6.781,5.745,6.783c-.075-.088-30.764,29.4-35.731,33.244-17.935,13.87-31.686-38.034-34.786-44.365L365.408,730.3l-35.88,61.9-10.5-8.969s53-100.522,54.355-103.108,15.72-33.514,15.72-33.514S432.942,637.852,433.468,639.047Z" transform="translate(-299.645 -508.703)" fill="#3d5a68"/>
    <path id="パス_26" data-name="パス 26" d="M497.7,258.645l4.706,2.268,20.19,1.8,11.13,43.869,33.313,42.6s-44.98,25.333-66.491,26.7l-26.359-96.289,6.977-8.956.6-1.944Z" transform="translate(-416.55 -222.184)" fill="#3d5a68"/>
    <path id="パス_27" data-name="パス 27" d="M467.445,150s-1.872,20.582-2.045,24.324,5.94,8.238,11.257,6.623,9.7-3.609,10.952-12.088a82.185,82.185,0,0,0,.927-14.788Z" transform="translate(-409.923 -140.33)" fill="#ec8275"/>
    <path id="パス_28" data-name="パス 28" d="M545.484,188.666c.032,2.214-2.2,4.028-5,4.054s-5.073-1.751-5.1-3.965,2.211-4.03,5-4.055S545.454,186.449,545.484,188.666Z" transform="translate(-462.654 -166.473)" fill="#ec8275"/>
    <path id="パス_29" data-name="パス 29" d="M493.741,121.356c-.895-2.274-6.781-9.017-12.847-9.634-1.552-.159-3.482-.3-4.889.413a9.9,9.9,0,0,0-3,2.057s.417-3.11,1.159-3.412a7.059,7.059,0,0,0-3.15,2.236,4.386,4.386,0,0,0-.73,2.783,3.974,3.974,0,0,1-1.159-1.991,5.621,5.621,0,0,0-1.456,3.282c-.122,1.662.217,4.037,1.379,5.335a7.594,7.594,0,0,0,4.361,1.863c1.109.09,2.189-.005,3.291.038a10.824,10.824,0,0,1,5.319,1.51c2.48,1.529,3.557,4.3,4.091,7.112.139.747.72,4.373.72,4.373l2.008.02s-.015-6.141.377-7.073a1.587,1.587,0,0,1,.831-.859,3.038,3.038,0,0,1,1.248.161S495.16,124.974,493.741,121.356Z" transform="translate(-411.619 -110.779)" fill="#69452e"/>
    <path id="パス_30" data-name="パス 30" d="M495.98,244.556l2.7,5.022.393,1.032,12.308-10.33-2.665-3.258Z" transform="translate(-432.965 -205.893)" fill="#ec8275"/>
    <path id="パス_31" data-name="パス 31" d="M487.242,201.048a.316.316,0,0,0,.051-.629l-6.011-.809c1.439-3.592,3.667-9.024,4-9.5a.316.316,0,0,0-.388-.5c-.1.065-.409.263-4.353,10.136a.317.317,0,0,0,.251.431l6.414.863A.291.291,0,0,0,487.242,201.048Z" transform="translate(-421.318 -170.138)" fill="#0d0001"/>
    <path id="パス_32" data-name="パス 32" d="M509.156,191.369a1.353,1.353,0,0,0,.62,1.727,1.187,1.187,0,0,0,1.6-.672,1.35,1.35,0,0,0-.626-1.723A1.186,1.186,0,0,0,509.156,191.369Z" transform="translate(-442.814 -170.911)" fill="#0d0001"/>
    <path id="パス_33" data-name="パス 33" d="M480.255,190.859a1.348,1.348,0,0,0,.62,1.725,1.186,1.186,0,0,0,1.6-.669,1.349,1.349,0,0,0-.626-1.724A1.186,1.186,0,0,0,480.255,190.859Z" transform="translate(-421.039 -170.527)" fill="#0d0001"/>
    <path id="パス_34" data-name="パス 34" d="M525.908,203.222a1.543,1.543,0,1,0,1.569-1.515A1.543,1.543,0,0,0,525.908,203.222Z" transform="translate(-455.513 -179.286)" fill="#e9706e"/>
    <path id="パス_35" data-name="パス 35" d="M527.576,204.786a.292.292,0,0,0,.207-.074c.251-.222,1.057-.979.893-1.383a.494.494,0,0,0-.281-.272,2.374,2.374,0,0,0-1.568.347l-.1.042-.069.028c.012-.017.026-.034.041-.053.031-.04.064-.083.1-.133.189-.25.58-.769.842-.76h.011a.3.3,0,0,0,.027-.59c-.568-.036-1.044.585-1.353.994-.034.045-.066.087-.095.124-.248.318-.5.68-.287.957s.632.134,1.01-.022l.109-.049a4.4,4.4,0,0,1,.933-.333,5.908,5.908,0,0,1-.61.659.293.293,0,0,0-.025.416A.289.289,0,0,0,527.576,204.786Z" transform="translate(-455.483 -179.46)" fill="#e55a65"/>
    <path id="パス_36" data-name="パス 36" d="M659.94,276.678s.966-2.94,2.688-.745,40.9,16.341,40.9,16.341l8.127,20.766L658.128,302.6Z" transform="translate(-555.13 -234.596)" fill="#3d5a68"/>
    <path id="パス_37" data-name="パス 37" d="M393.939,342.63s-3.253,5.638-5.3,8.592c-1.232,1.775-20.806,34.045-21.259,34.02s8.272,10.426,8.272,10.426L412.689,360Z" transform="translate(-336.059 -285.46)" fill="#3d5a68"/>
    <path id="パス_38" data-name="パス 38" d="M911.147,486.4c.336,2.4,0,4.878.884,7.178a18.263,18.263,0,0,0,1.579,3.087c.632,1.026.988,2.184,1.546,3.238.652,1.233,1.7,2.249,2.377,3.49a5.591,5.591,0,0,1,.678,2.438c.032.445-.108,1.374.16,1.758.443.636,1.49.21,2.006-.285a4.907,4.907,0,0,0,1.188-3.52c-.025-.552-.562-1.808-.41-2.29.293-.93,2.148-.288,2.79-.379,1.146-.161,1.832-1.338,2.985-1.569,1.5-.3,2.451-.228,2.716-1.99.207-1.381.188-1.924,1.292-2.794.9-.708,1.723-1.761,1.145-2.9a20.454,20.454,0,0,0-2.173-2.968c-.621-.776-1.144-1.627-1.812-2.366a14.082,14.082,0,0,0-5.028-3.514c-1.621-.665-3.663-.352-4.931-1.6a16.049,16.049,0,0,1-2.256-2.86c-.558-.874-.649-1.763-1.641-1.632a9.575,9.575,0,0,0-2.486,1.209c-.755.365-1.507.755-2.271,1.083-.3.127-.916.2-1.064.475-.441.808.7,2.745,1.089,3.355a8.176,8.176,0,0,1,1.616,3.2C911.132,486.3,911.139,486.351,911.147,486.4Z" transform="translate(-743.63 -386.632)" fill="#ec8275"/>
    <path id="パス_39" data-name="パス 39" d="M807.336,340.19l5.652,1.081s27.821,34.287,27.853,34.775-10.477,7.055-10.477,7.055l-27.206-28.975Z" transform="translate(-664.399 -283.622)" fill="#3d5a68"/>
    <path id="パス_40" data-name="パス 40" d="M330.644,277.82c.507-.813,1.034-1.613,1.465-2.476.451-.9,1.361-1.967,1.153-3.018a3.925,3.925,0,0,0-2.121-2.4c-.435-.248-.842-.344-1.055-.784a18.881,18.881,0,0,1-.345-2.365c-.392-1.424-.993-4.3-2.658-4.873-.977-.335-1.33.518-1.924,1.148-.643-.418-1.631-1.043-2.466-.733-.775.287-.832,1.382-1.528,1.722-.848.413-1.819-.667-2.773-.337-1.019.352-1.08,1.636-1.537,2.432-4.52-1.521-2.939,4.281-2.369,6.781a13.806,13.806,0,0,0,2.123,5.419c.9,1.2,2.136,2.07,3.086,3.213,1.21,1.457,1.185,4.36,1.573,6.195.22,1.039.233,1.544,1.289,1.906a7.284,7.284,0,0,0,3.124.394,9.091,9.091,0,0,0,3.3-1.052c.61-.606.517-2.31.572-3.121.142-2.138-.971-4.038.033-6.166A18.671,18.671,0,0,1,330.644,277.82Z" transform="translate(-295.668 -224.586)" fill="#ec8275"/>
    <path id="パス_41" data-name="パス 41" d="M342.222,348.761l9.879-1.119s10.535,42.146,8.411,46.769-5.51,7.875-9.161,5.827-4.388-3.866-4.962-5.281S342.222,348.761,342.222,348.761Z" transform="translate(-317.12 -289.236)" fill="#3d5a68"/>
    <path id="パス_42" data-name="パス 42" d="M500.581,130.442c-.13-.142-.26-.28-.388-.419l-.043-.046a.344.344,0,0,1,.5-.47l.044.046.392.422a.345.345,0,0,1-.507.467Zm-1.768-1.991a8.3,8.3,0,0,1-.473-.685.344.344,0,0,1,.587-.361,7.446,7.446,0,0,0,.433.628.344.344,0,0,1-.547.418Zm-1.267-2.63c-.02-.092-.04-.186-.056-.283-.031-.183-.056-.367-.073-.547a.344.344,0,0,1,.685-.064c.015.162.037.328.066.494.016.086.031.17.049.252a.344.344,0,0,1-.261.41.357.357,0,0,1-.086.009A.343.343,0,0,1,497.546,125.821Zm.32-2.51a.344.344,0,0,1-.145-.465,1.908,1.908,0,0,1,.641-.717.344.344,0,0,1,.378.576,1.212,1.212,0,0,0-.409.463.341.341,0,0,1-.465.144Z" transform="translate(-434.047 -119.288)" fill="#ab6d39"/>
    <path id="パス_43" data-name="パス 43" d="M530.838,148.879c-.083-.256-.171-.5-.263-.73a.344.344,0,1,1,.639-.255c.1.242.191.5.279.772a.345.345,0,1,1-.655.213Zm-1.163-2.412a7.1,7.1,0,0,0-.475-.595.344.344,0,0,1,.514-.458,7.715,7.715,0,0,1,.521.653.344.344,0,0,1-.56.4Zm-1.916-1.842c-.2-.139-.424-.277-.653-.41a.344.344,0,1,1,.343-.6c.245.141.48.288.7.437a.344.344,0,0,1,.09.478.347.347,0,0,1-.478.09Z" transform="translate(-456.286 -135.486)" fill="#ab6d39"/>
    <path id="パス_44" data-name="パス 44" d="M551.638,147.43a.343.343,0,0,1-.308-.376c.011-.1.016-.208.021-.313,0-.141,0-.288,0-.435a.345.345,0,0,1,.689-.031c.007.164.007.329,0,.489,0,.12-.012.239-.025.358a.343.343,0,0,1-.353.311Zm-.644-2.994c-.073-.238-.16-.483-.258-.729a.344.344,0,1,1,.641-.253c.1.262.2.522.276.776a.344.344,0,0,1-.227.431.335.335,0,0,1-.115.017A.348.348,0,0,1,550.994,144.436Zm-1.108-2.479c-.126-.223-.262-.448-.4-.669a.344.344,0,1,1,.579-.371c.148.23.289.465.422.7a.343.343,0,0,1-.127.469.344.344,0,0,1-.471-.128Z" transform="translate(-473.234 -133.366)" fill="#ab6d39"/>
    <path id="パス_45" data-name="パス 45" d="M512.687,250.8l.019,0a23.061,23.061,0,0,0,4.006-1.73c2.674-1.384,4.1-5.744,4.164-5.929a.316.316,0,0,0-.6-.194c-.014.043-1.411,4.3-3.852,5.561a22.8,22.8,0,0,1-3.882,1.682.316.316,0,0,0,.147.615Z" transform="translate(-445.266 -210.191)" fill="#c76e64"/>
    <path id="パス_46" data-name="パス 46" d="M545.941,564.8l.008,0,9.324-2.771a.366.366,0,0,0,.236-.49l-2.9-7.2a.368.368,0,0,0-.437-.216h0l-8.466,2.417a.367.367,0,0,0,.2.706h0l8.148-2.326,2.631,6.517L545.74,564.1a.367.367,0,0,0,.2.706Z" transform="translate(-468.715 -444.797)" fill="#253740"/>
    <path id="パス_47" data-name="パス 47" d="M487.983,235.494a11.226,11.226,0,0,1-4.547-1.288.449.449,0,1,1,.425-.79c1.18.634,4.556,1.968,5.982.543a10.278,10.278,0,0,0,2.313-5.092.449.449,0,0,1,.89.123,11.051,11.051,0,0,1-2.57,5.6A3.4,3.4,0,0,1,487.983,235.494Z" transform="translate(-423.336 -199.456)" fill="#d62a28"/>
    <path id="パス_48" data-name="パス 48" d="M351.821,344.079l-.355-1.166-9.481,1.572.059.713Z" transform="translate(-316.941 -285.673)" fill="#fff"/>
    <path id="パス_49" data-name="パス 49" d="M519.167,246.665l-13.252,11.1-.1,1.268,16.206-9.151Z" transform="translate(-440.374 -213.159)" fill="#fff"/>
    <path id="パス_50" data-name="パス 50" d="M562.009,249.2a.36.36,0,0,0,.206-.072.367.367,0,0,0,.075-.513l-2.33-3.134a.367.367,0,1,0-.588.438l2.329,3.134A.37.37,0,0,0,562.009,249.2Z" transform="translate(-480.67 -212.154)" fill="#50bef1"/>
    <path id="パス_51" data-name="パス 51" d="M408.594,466.35a.446.446,0,0,1-.425-.305c-.152-.456-1.906-8.142-2.105-9.016a.449.449,0,1,1,.875-.2c.777,3.41,1.974,8.6,2.082,8.931a.448.448,0,0,1-.427.59Z" transform="translate(-365.212 -371.237)" fill="#253740"/>
    <path id="パス_52" data-name="パス 52" d="M507.793,365.853a.449.449,0,0,1-.363-.712c.1-.14,10.136-14.083,7.279-20.8-2.506-5.891-3.25-6.943-3.4-7.112a.442.442,0,0,1-.188-.205.449.449,0,0,1,.221-.594.488.488,0,0,1,.362-.008c.217.084.726.282,3.827,7.569,3.056,7.181-6.951,21.089-7.378,21.677A.449.449,0,0,1,507.793,365.853Zm3.925-28.606a.442.442,0,0,1-.172.04A.446.446,0,0,0,511.718,337.247Z" transform="translate(-441.526 -280.759)" fill="#253740"/>
    <path id="パス_53" data-name="パス 53" d="M675.564,311.044a.448.448,0,0,1-.431-.325L668.7,288.435a.449.449,0,1,1,.863-.249l6.43,22.284a.448.448,0,0,1-.306.556A.454.454,0,0,1,675.564,311.044Z" transform="translate(-563.083 -244.197)" fill="#253740"/>
    <path id="パス_54" data-name="パス 54" d="M585.016,632.6a.444.444,0,0,1-.216-.056l-4.934-2.692a.449.449,0,1,1,.431-.788l4.734,2.583,34.018-15.9-3.962-18.494a.448.448,0,0,1,.813-.341l11.217,17.05a.448.448,0,1,1-.75.492l-9.9-15.05L620,615.9a.449.449,0,0,1-.248.5l-34.547,16.152A.462.462,0,0,1,585.016,632.6Z" transform="translate(-495.99 -476.883)" fill="#253740"/>
    <path id="パス_55" data-name="パス 55" d="M955.4,510.338l-13.824,15.793,16.61,13.35,1.863-1.9-12.357-11.628,8.739-10.186,11.664,9.739,3.3-2.924Z" transform="translate(-768.683 -411.815)" fill="#2e2a29"/>
    <path id="パス_56" data-name="パス 56" d="M501.4,285.255s.7-.376,1.884-.865c3.662-1.51,11.976-4.1,18.754-.032,8.973,5.384,18.585,10.28,18.585,10.28l1.346,4.935-7.179,1.346s-11.854-9.83-15.893-12.074-16.569-2.383-16.569-2.383Z" transform="translate(-437.045 -239.914)" fill="#ac230c"/>
    <path id="パス_57" data-name="パス 57" d="M976.3,514.771,936.61,555.79l39.308,34.6L1016,540.482Z" transform="translate(-764.945 -415.155)" fill="#2e2a29"/>
    <path id="パス_58" data-name="パス 58" d="M965.032,529.769a1.658,1.658,0,0,1-2.959.709c-.773-.837-1-2.075-1.716-2.926a4.755,4.755,0,0,1-1.508-2.785c-.047-1.178.293-1.466,1.417-1.194a10.249,10.249,0,0,1,3.175,1.357c-.918-.843-2.961-3.343-2.2-4.747.837-1.54,3.479.575,4.007,1.467-.5-.7-2.842-3-1.7-3.937.948-.772,3.052,1.287,3.367,2.026-.463-.9-2.174-2.448-1.271-3.537,1.03-1.242,2.891.444,3.641,1.142a6.526,6.526,0,0,1,2.49,4.454c.1,1.533-1.074,1.468-2.269,1.521-.041,1.44.6,2.912-1.2,3.044-.435.031-.936-.148-1.156.211-.275.447.337,1.272-.015,1.776-.412.591-.968.136-1.516.357S965.188,529.229,965.032,529.769Z" transform="translate(-781.696 -415.898)" fill="#ec8275"/>
    <path id="パス_59" data-name="パス 59" d="M925.975,813.35c.132-3.063,5.662-4.494,8.287-5.019,1.51-.3,1.869-.407,3,.572s3.889,3.482,4.064,5.045c.205,1.844-1.055,1.607.636,3.213a15.408,15.408,0,0,1,3.4,4.365,25.3,25.3,0,0,1,2.649,11.378c-.016,1.524-.385,4.214-1.593,5.268-1.041-1.274-1.212-3.131-2.141-4.516a34.823,34.823,0,0,0-3.537-4.911c-2.189-2.275-4.352-4.541-7.347-5.646-3.338-1.23-6.208-5.453-7.268-8.714A2.939,2.939,0,0,1,925.975,813.35Z" transform="translate(-756.93 -636.17)" fill="#2e2a29"/>
    <path id="パス_60" data-name="パス 60" d="M643.715,758.449a.449.449,0,0,1-.427-.314l-3.026-9.578a.449.449,0,0,1,.857-.27l3.025,9.579a.45.45,0,0,1-.293.563A.444.444,0,0,1,643.715,758.449Z" transform="translate(-541.654 -590.853)" fill="#253740"/>
    <path id="パス_61" data-name="パス 61" d="M916.142,494.552l9.073-5.952a.5.5,0,0,1,.073.653c-.218.435-8.71,6.169-8.71,6.169Z" transform="translate(-749.523 -395.437)" fill="#fff"/>
  </g>
  <g id="グループ_23" data-name="グループ 23" transform="translate(145.263 45.891)">
    <g id="グループ_22" data-name="グループ 22">
      <path id="パス_62" data-name="パス 62" d="M722.882,408.248s-2,2.062-2.448,8.709-1.086,22.48-1.086,22.48l12.143-3.384Z" transform="translate(-687.234 -353.474)" fill="#cbbba7"/>
      <path id="パス_63" data-name="パス 63" d="M596.873,1302.338s-8.32.678-7.732,1.284,11.11,3.526,14.185,2.319,5.99-6.417,6.382-6.367l.392.05-1.742,7.484,1.586.066s1.611-8.563,2.217-9.151,2.111-1.991,1.019-4.917c-.372-1-.85-.639-.85-.639l-13.986,9.791Z" transform="translate(-589.111 -1019.615)" fill="#cbbba7"/>
      <path id="パス_64" data-name="パス 64" d="M650.46,876.565,668,825.281l-18.057-3.6L630.35,936.241l-1.29,1.556-7.4,8.372-3.254,1.581s5.406,1.9,8.111-.559c2.265-2.056,7.958-8.351,7.958-8.351.861-1.042-.135-2.628-.135-2.628L650.256,884.5Z" transform="translate(-611.182 -664.962)" fill="#ec8275"/>
      <path id="パス_65" data-name="パス 65" d="M1162.009,1100.557s-1.245,8.254-.521,7.82,5.978-10.008,5.506-13.277-4.874-7.3-4.737-7.669l.138-.372,6.887,3.408.428-1.528s-7.967-3.529-8.4-4.253-1.457-2.51-4.555-2.118c-1.055.132-.816.681-.816.681l6.328,15.856Z" transform="translate(-1016.153 -861.479)" fill="#cbbba7"/>
      <path id="パス_66" data-name="パス 66" d="M844.8,817.615l-8.34-48.926-20.978,5.37,21.985,52.258,7.4,2.285,52.125,21.79,1.22,1.612,6.456,9.12.794,3.531s3.081-4.83,1.312-8.024c-1.484-2.675-6.308-9.659-6.308-9.659-.817-1.075-2.588-.468-2.588-.468L851.183,819.17Z" transform="translate(-759.666 -625.037)" fill="#ec8275"/>
      <path id="パス_67" data-name="パス 67" d="M644.64,478.507s13.042,35.385,16,36.267c3.392,1.007,26.353-7.635,24.929-11.476-1.742-4.7-10.5-37.916-10.5-37.916Z" transform="translate(-630.948 -396.52)" fill="#454343"/>
      <path id="パス_68" data-name="パス 68" d="M840.19,253.276a6.4,6.4,0,0,0-.4-.711c-1.179-1.8-3.171-2.332-5.149-2.77-2.942-.653-5.3-2.063-6.526-5.06a8.668,8.668,0,0,1,6.977-11.919c3.534-.33,6.879,2.048,8.774,4.814,1.668,2.435,4.236,2.615,6.955,2.629a7.965,7.965,0,0,1,7.189,4.05c.514.828.8,2.231,1.524,2.866,1.118.984,2.539.289,3.518-.45.263,1.5-.98,2.509-1.788,3.538,1.658-.155,3.179-2.763,3.62-4.116a14.529,14.529,0,0,0,.741,3.1c.605,2.9-.834,5.733-2.63,7.935a14.055,14.055,0,0,1-11.1,4.9c-3.478-.227-7.577-1.276-9.729-4.207C841.159,256.5,840.919,254.773,840.19,253.276Z" transform="translate(-768.692 -221.277)" fill="#4a322f"/>
      <path id="パス_69" data-name="パス 69" d="M718.419,746.15l8.843-68.882,35.463-9.423c-.143.038,3.849,9.556,4.1,10.306,1.683,4.98,2.824,14.8,3.023,20.055.462,12.2.719,19.927,1.82,36.877Z" transform="translate(-686.534 -549.059)" fill="#cbbba7"/>
      <path id="パス_70" data-name="パス 70" d="M780.26,448.783c-6.555-13.109-13.573-18.942-13.109-30.7l1.771-38.094-14.572-7.436-13.115,2.413-10.152,6.376s-2.229,7.684.727,19.19c1.841,7.166,6.5,22.513,6.5,22.518,2.979,9.863-3.286,24.319-2.554,36.774C750.952,459.05,763.356,453.268,780.26,448.783Z" transform="translate(-695.468 -326.579)" fill="#cbbba7"/>
      <path id="パス_71" data-name="パス 71" d="M786.445,372.734l-.135-.183-13.612,2.43,2.956,29.991Z" transform="translate(-727.429 -326.579)" fill="#fff"/>
      <path id="パス_72" data-name="パス 72" d="M760.773,204.186c-.053.125-.108.249-.165.372-.693,1.525-1.7,2.877-2.489,4.347a35.834,35.834,0,0,1-2.021,4.012,13.417,13.417,0,0,1-4.819,4.024,13.6,13.6,0,0,1-5.375,1.6c-2.56.155-5.016-1.574-7.261-2.612a6.157,6.157,0,0,1-2.516-2.328c-.5-.753-1.011-2.3-1.84-2.732-.249-.13-.587.063-.876-.112a5.949,5.949,0,0,1-1.721-2.569c-.517-1.255-.788-8.085,1.444-12.895a11.717,11.717,0,0,1,3.094-3.622c3.52-3.01,8.013-5.7,12.8-5.558a19.08,19.08,0,0,1,5.36,1.156c3.06,1.014,5.8,4.208,6.893,7.122A12.922,12.922,0,0,1,760.773,204.186Z" transform="translate(-696.263 -186.111)" fill="#4a322f"/>
      <path id="パス_73" data-name="パス 73" d="M757.211,241.561c.782,6.5-8,12.635-14.523,14.259-1.87.466-8.378-4.565-9.154-11.061-.413-3.428-.91-9.046.912-12.286,1.634-2.9,4.907-3.9,8.06-4.278C749.178,227.388,756.431,235.063,757.211,241.561Z" transform="translate(-697.629 -217.774)" fill="#ec8275"/>
      <path id="パス_74" data-name="パス 74" d="M826.113,267.391c.254,2.112-4.187,6.591-6.3,6.85s.6-2.535.345-4.653.328-5.086,2.441-5.339S825.859,265.271,826.113,267.391Z" transform="translate(-762.313 -244.958)" fill="#ec8275"/>
      <path id="パス_75" data-name="パス 75" d="M766.659,214q-.055-.387-.131-.781a10.825,10.825,0,0,0-2.31-4.8c-.693-.833-1.464-1.626-2.235-2.387a14.036,14.036,0,0,0-3.718-2.649,15.726,15.726,0,0,0-4.218-1.2,8.1,8.1,0,0,0-3.144-.265c-2.5.342-3.79,1.377-5.32,3.286-1.2,1.5-1.89,3.543-.573,5.08,1.211,1.412,2.938,2.26,4.421,3.336a52.653,52.653,0,0,0,5,3.069c1.475.832,2.942,2.2,4.477,2.847a15.784,15.784,0,0,0-.976-1.8c.506.116,1.086.766,1.542,1.117,2.135,1.642,3.844,3.07,4.968,5.569C765.615,221.2,767.143,217.4,766.659,214Z" transform="translate(-706.031 -197.978)" fill="#4a322f"/>
      <path id="パス_76" data-name="パス 76" d="M739.781,274.064a1.219,1.219,0,0,1-.436,1.6,1.072,1.072,0,0,1-1.494-.489,1.219,1.219,0,0,1,.441-1.6A1.071,1.071,0,0,1,739.781,274.064Z" transform="translate(-701.075 -251.906)" fill="#0d0001"/>
      <path id="パス_77" data-name="パス 77" d="M771.826,273.033a1.221,1.221,0,0,1-.436,1.6,1.074,1.074,0,0,1-1.5-.489,1.221,1.221,0,0,1,.442-1.6A1.072,1.072,0,0,1,771.826,273.033Z" transform="translate(-725.218 -251.13)" fill="#0d0001"/>
      <path id="パス_78" data-name="パス 78" d="M751.094,285.373a.34.34,0,0,1-.237-.063c-.125-.093-.262-.18-.4-.263-.444-.279-.948-.595-.991-1.247a9.993,9.993,0,0,1,.607-2.412c.154-.484.3-.941.337-1.14a.324.324,0,0,1,.363-.236.275.275,0,0,1,.262.311c-.043.227-.186.677-.352,1.2a11.73,11.73,0,0,0-.585,2.232c.025.377.284.557.739.844.143.089.292.182.437.291a.249.249,0,0,1,.025.388A.346.346,0,0,1,751.094,285.373Z" transform="translate(-709.928 -256.856)" fill="#0d0001"/>
      <path id="パス_79" data-name="パス 79" d="M778.322,329.587l8.856-6.609s-.443-.782-1.072-1.886c-1.251-2.2-2.212-14.581-2.212-14.581l-4.354,2.84,0,.024,0-.024-2.263.221s-.1,11.911-1.765,13.813l-1.664,1.9Z" transform="translate(-728.295 -276.823)" fill="#ec8275"/>
      <path id="パス_80" data-name="パス 80" d="M794.13,283.717a1.4,1.4,0,1,1-1.525-1.252A1.4,1.4,0,0,1,794.13,283.717Z" transform="translate(-741.478 -258.701)" fill="#e9706e"/>
      <path id="パス_81" data-name="パス 81" d="M792.971,285.345a.268.268,0,0,1-.189-.054c-.384-.3-1.012-.843-.9-1.185a.441.441,0,0,1,.231-.262,2.138,2.138,0,0,1,1.436.2l.093.032.065.021-.041-.046-.1-.113c-.189-.213-.586-.647-.818-.623a.268.268,0,0,1-.069-.531c.516-.071.98.453,1.286.8.035.039.068.075.1.107.247.269.5.578.327.843s-.56.166-.911.053l-.1-.036a4.025,4.025,0,0,0-.864-.233,5.584,5.584,0,0,0,.6.553.267.267,0,0,1,.048.374A.264.264,0,0,1,792.971,285.345Z" transform="translate(-741.874 -258.941)" fill="#e55a65"/>
      <path id="パス_82" data-name="パス 82" d="M792.122,218.434h0a.365.365,0,0,1-.363-.367c.01-2.44-2.069-5.468-4.135-7.387-1.262-1.172-4.57-3.95-8.017-4.424a.365.365,0,0,1,.1-.723c3.653.5,7.1,3.393,8.414,4.613,2.022,1.879,4.379,5.082,4.368,7.925A.365.365,0,0,1,792.122,218.434Z" transform="translate(-732.396 -200.741)" fill="#5a3a2b"/>
      <path id="パス_83" data-name="パス 83" d="M814.4,216.479a2.772,2.772,0,0,1-2-.6.365.365,0,1,1,.524-.508c.792.817,3.812.16,5.178-.355a.365.365,0,1,1,.258.683A12.911,12.911,0,0,1,814.4,216.479Z" transform="translate(-757.268 -207.869)" fill="#5a3a2b"/>
      <path id="パス_84" data-name="パス 84" d="M828.131,226.509a2.116,2.116,0,0,1-.629-.1.365.365,0,1,1,.216-.7c1.293.4,2.73-1.261,3.78-2.474.238-.275.462-.534.662-.742a.365.365,0,0,1,.526.506c-.186.194-.4.447-.636.714C831.011,224.919,829.635,226.509,828.131,226.509Z" transform="translate(-768.526 -213.443)" fill="#5a3a2b"/>
      <path id="パス_85" data-name="パス 85" d="M809.337,199.762a.363.363,0,0,1-.256-.105,8.484,8.484,0,0,0-7.656-1.52.365.365,0,1,1-.262-.682,9.194,9.194,0,0,1,8.43,1.681.365.365,0,0,1-.256.625Z" transform="translate(-748.699 -194.355)" fill="#5a3a2b"/>
      <path id="パス_86" data-name="パス 86" d="M815.338,391.167c13.375-3.313,8.622,19.291,7.145,25.5-1.876,7.885-3.625,17.705-8.021,24.579-3.516,5.5-9.622,9.214-11.822.612-1.437-5.617-.765-11.713-.268-17.408.729-8.347,2.312-30.341,12.592-33.187Q815.153,391.213,815.338,391.167Z" transform="translate(-749.334 -340.356)" fill="#cbbba7"/>
      <path id="パス_87" data-name="パス 87" d="M876.989,267.936a9.192,9.192,0,0,1-2.965-.507c-2.657-.912-4.259-3.837-4.824-5.051a14.248,14.248,0,0,1-.733-2.489c-.622-2.632-1.325-5.617-3.925-5.3a.365.365,0,1,1-.089-.725c3.248-.4,4.1,3.216,4.724,5.854a13.9,13.9,0,0,0,.684,2.349c1.095,2.354,2.74,4.1,4.4,4.669a6.887,6.887,0,0,0,5.728-.3,3.823,3.823,0,0,0,1.754-2.962.365.365,0,1,1,.725.083,4.577,4.577,0,0,1-2.089,3.5A6.369,6.369,0,0,1,876.989,267.936Z" transform="translate(-796.318 -237.136)" fill="#5a3a2b"/>
      <path id="パス_88" data-name="パス 88" d="M891.849,317.039a16.39,16.39,0,0,1-1.7-.1c-1.091-.114-5.029-2.143-4.907-4.957a.365.365,0,0,1,.73.032c-.1,2.291,3.37,4.107,4.253,4.2,1.571.165,3.756.257,4.6-.846a.365.365,0,1,1,.579.444C894.659,316.787,893.234,317.039,891.849,317.039Z" transform="translate(-812.221 -280.681)" fill="#5a3a2b"/>
      <path id="パス_89" data-name="パス 89" d="M789.053,320.187a.365.365,0,0,1-.181-.682,24.341,24.341,0,0,0,4.036-2.816l1.021-1.116a.365.365,0,0,1,.539.493l-1.021,1.116a24.387,24.387,0,0,1-4.212,2.958A.367.367,0,0,1,789.053,320.187Z" transform="translate(-739.476 -283.561)" fill="#c4665c"/>
      <path id="パス_90" data-name="パス 90" d="M655.078,537.847a6.914,6.914,0,0,1,4.3.262c.392.152,1.124.38.7.989a1.825,1.825,0,0,1-1.179.507c-1.1.17-2.24.137-3.34.257a8.106,8.106,0,0,0-2.99,1.316,1.5,1.5,0,0,1-1.812-.034c-.538-.426-.373-1.168-.594-1.752-.211-.557-.826-.416-1.066-.934a3.8,3.8,0,0,1-.129-1.338,1.789,1.789,0,0,0-.662-1.112c-.312-.335-.285-.628-.373-1.055-.18-.871-1.29-1.125-1-2.248.259-1,1.779-1.652,2.5-2.1a6.027,6.027,0,0,1,2.6-.437c.936-.094,1.867-.171,2.814-.2a22.129,22.129,0,0,1,2.245.249,4.543,4.543,0,0,1,1.77.309c.761.411-.252,1.047-.645,1.307a3.7,3.7,0,0,1,1.747.089c.5.119,1.031.041,1.417.5.427.513-.01.885-.507,1.132-1.264.631-2.979.539-4.32.615a12.9,12.9,0,0,0-4.381,1.089c1.788-.212,4.428-.867,6.225-.887.4,0,2.65-.294,2.665.533.007.374-.664.848-.909.966a10.5,10.5,0,0,1-2.28.52,13.95,13.95,0,0,0-4.491,1.562C653.96,537.886,654.505,537.974,655.078,537.847Z" transform="translate(-632.642 -445.182)" fill="#ec8275"/>
      <path id="パス_91" data-name="パス 91" d="M664.015,537.9a.427.427,0,0,1-.182-.814,11.289,11.289,0,0,1,2.633-.774,10.559,10.559,0,0,1,3.42-.275.427.427,0,1,1-.122.846,9.894,9.894,0,0,0-3.131.268,10.567,10.567,0,0,0-2.436.709A.426.426,0,0,1,664.015,537.9Z" transform="translate(-645.223 -449.71)" fill="#c4665c"/>
      <path id="パス_92" data-name="パス 92" d="M735.627,435.1a.527.527,0,0,1-.065,0,.517.517,0,0,1-.449-.578c.558-4.452,2.825-14.844,2.847-14.94a.518.518,0,0,1,1.01.229c-.022.1-2.277,10.43-2.829,14.84A.517.517,0,0,1,735.627,435.1Z" transform="translate(-699.109 -361.71)" fill="#ab9f91"/>
      <path id="パス_93" data-name="パス 93" d="M695.157,413.971a.913.913,0,0,1-.907-.819c-.182-1.758,5.1-12.4,5.322-12.85,1.744-3.507,6.17-12.1,9.607-16.117,1.283-1.5,2.307-2.224,3.224-2.273a.913.913,0,0,1,.1,1.823c-.839.045-3.764,2.978-9.4,13.685-3.975,7.549-6.944,14.52-7.028,15.584a.913.913,0,0,1-.818.962A.941.941,0,0,1,695.157,413.971Z" transform="translate(-668.321 -333.63)" fill="#454343"/>
    </g>
    <path id="パス_94" data-name="パス 94" d="M640.375,374.677a13.972,13.972,0,0,0,1.952,3.211A31.258,31.258,0,0,0,645.09,381a10.346,10.346,0,0,0,3.2,2.153,11.288,11.288,0,0,1,3.44,1.938,13.835,13.835,0,0,1,1.568,1.827,12.839,12.839,0,0,0,1.038,1.631c.942,1.05,2.113-.269,2.76-.974.535-.583,2.308-1.385,2.065-2.3-.118-.445-.138.467-.424.086-.911-1.216-2.827-2.7-3.424-4.136-.627-1.5-.488-7.811-3.418-10.146-.564-.449-1.33-.066-1.983-.393a4.225,4.225,0,0,1-1.434-1.1c-1.565-1.522-3.418-1.627-2.784.174-2.18-.906-2.912-.337-2.34,1.775-1.994-.1-1.711.329-1.548,1.875C640.837,373.258,640.134,373.943,640.375,374.677Z" transform="translate(-627.698 -323.472)" fill="#ec8275"/>
    <path id="パス_95" data-name="パス 95" d="M698.953,432.682l-4.708,3.481s25.928,50.053,30.235,37.915C728.275,463.384,698.953,432.682,698.953,432.682Z" transform="translate(-668.321 -371.883)" fill="#cbbba7"/>
    <path id="パス_96" data-name="パス 96" d="M808.387,434.794a.517.517,0,0,1-.5-.663c.027-.093,2.748-9.364,4.459-14.652A99.213,99.213,0,0,1,820.2,402.29a.518.518,0,0,1,.89.528,98.066,98.066,0,0,0-7.753,16.979c-1.707,5.275-4.424,14.532-4.451,14.625A.517.517,0,0,1,808.387,434.794Z" transform="translate(-753.928 -348.794)" fill="#ab9f91"/>
    <path id="パス_97" data-name="パス 97" d="M750.283,474.792a.531.531,0,0,1-.1-.01.518.518,0,0,1-.415-.539c-.456-1.769-14.584-16.139-23.424-24.821a.518.518,0,0,1,.725-.738c.06.059,6.053,5.948,11.926,11.972,12.066,12.375,11.9,13.217,11.8,13.72A.518.518,0,0,1,750.283,474.792Z" transform="translate(-692.387 -383.827)" fill="#ab9f91"/>
    <path id="パス_98" data-name="パス 98" d="M774.3,541.611l-.135,0c-4.779-.213-14.313-12.718-14.716-13.25a.517.517,0,0,1,.824-.625c2.668,3.518,10.371,12.683,13.938,12.842a1.245,1.245,0,0,0,1.051-.4c2.79-3.069,4.333-6.4,7.135-12.455,1.144-2.473,2.442-5.275,4.119-8.705a.517.517,0,0,1,.93.455c-1.672,3.42-2.967,6.218-4.109,8.685-2.844,6.145-4.411,9.53-7.308,12.716A2.24,2.24,0,0,1,774.3,541.611Z" transform="translate(-717.367 -436.707)" fill="#ab9f91"/>
    <path id="パス_99" data-name="パス 99" d="M694.4,427.875l-4.133,3.07.664.873,4.278-2.811Z" transform="translate(-665.324 -368.261)" fill="#ab1717"/>
    <path id="パス_100" data-name="パス 100" d="M694.873,430.371l-2.367,1.815,1.039,1.3,2.354-1.762Z" transform="translate(-667.011 -370.141)" fill="#906522"/>
    <path id="パス_101" data-name="パス 101" d="M696.716,432.327l-1.561,1.2.685.858,1.552-1.162Z" transform="translate(-669.007 -371.615)" fill="#fff"/>
    <path id="パス_102" data-name="パス 102" d="M699.4,440.1l.119.158.21-.171-.1-.171-.237.131Z" transform="translate(-672.195 -377.334)" fill="#906522"/>
    <path id="パス_103" data-name="パス 103" d="M758.467,307.044c-.163.827-1.3,4.129-3.126,4.554-1.782.415-3.927-2.068-4.207-3.468Z" transform="translate(-711.182 -277.224)" fill="#c1143a"/>
    <path id="パス_104" data-name="パス 104" d="M680.55,380.372a.393.393,0,0,1-.3-.136l-2.115-2.441a.394.394,0,1,1,.595-.516l2.115,2.441a.394.394,0,0,1-.3.652Z" transform="translate(-656.112 -330.039)" fill="#c4665c"/>
    <path id="パス_105" data-name="パス 105" d="M776.283,404.778a.23.23,0,0,1-.187-.364l3.7-5.155a.23.23,0,0,1,.36-.017l4.494,5.155a.23.23,0,1,1-.347.3l-4.3-4.936-3.532,4.919A.23.23,0,0,1,776.283,404.778Z" transform="translate(-729.957 -346.628)" fill="#adaeae"/>
    <path id="パス_106" data-name="パス 106" d="M757.922,692.1a.517.517,0,0,1-.086-1.028l34.5-5.865a.518.518,0,1,1,.173,1.02l-34.5,5.865A.532.532,0,0,1,757.922,692.1Z" transform="translate(-715.907 -562.138)" fill="#ab9f91"/>
    <path id="パス_107" data-name="パス 107" d="M792.668,440.195a.518.518,0,0,1-.461-.751L802.4,419.318l-3.356-2.277a.517.517,0,0,1,.581-.856l3.733,2.533a.518.518,0,0,1,.171.662l-10.4,20.531A.517.517,0,0,1,792.668,440.195Z" transform="translate(-742.086 -359.386)" fill="#ab9f91"/>
    <path id="パス_108" data-name="パス 108" d="M828.353,394.7a.518.518,0,0,1-.24-.977l2.794-1.458.128-7.026a.518.518,0,0,1,.517-.508h.01a.518.518,0,0,1,.508.527l-.133,7.333a.519.519,0,0,1-.278.45l-3.066,1.6A.513.513,0,0,1,828.353,394.7Z" transform="translate(-768.971 -335.759)" fill="#ab9f91"/>
    <path id="パス_109" data-name="パス 109" d="M754.658,406.626a.514.514,0,0,1-.323-.113l-2-1.6a.517.517,0,0,1-.168-.568l1.733-5.2a.518.518,0,1,1,.982.327l-1.619,4.857,1.718,1.374a.517.517,0,0,1-.323.922Z" transform="translate(-711.941 -346.349)" fill="#ab9f91"/>
    <path id="パス_110" data-name="パス 110" d="M759.073,435a.517.517,0,0,1-.476-.315l-5.333-12.532a.517.517,0,0,1,.028-.462c1.986-3.431,3.162-5.283,3.494-5.5a.517.517,0,0,1,.6.84c-.3.306-1.765,2.71-3.071,4.959l5.232,12.294a.518.518,0,0,1-.476.72Z" transform="translate(-712.756 -359.386)" fill="#ab9f91"/>
  </g>
  <path id="パス_111" data-name="パス 111" d="M822.74,296.567a.8.8,0,1,1-.8-.8A.8.8,0,0,1,822.74,296.567Z" transform="translate(-618.667 -222.839)" fill="#fff"/>
</svg>
