<svg xmlns="http://www.w3.org/2000/svg" width="280.204" height="186.282" viewBox="0 0 280.204 186.282">
  <g id="グループ_18" data-name="グループ 18" transform="translate(-181.715 -426.853)">
    <g id="グループ_17" data-name="グループ 17">
      <g id="グループ_2" data-name="グループ 2">
        <g id="グループ_1" data-name="グループ 1">
          <path id="パス_1" data-name="パス 1" d="M268.729,591.923a36.241,36.241,0,0,0-3.967-9.587l-.3.507c-1.957,3.332-5.45,5.714-12.152,1.779-5.216-3.063-8.723-7.461-5.618-12.749,2.383-4.058,7.653-5.152,14.427-1.175.544.32,1.1.7,1.624,1.051,1.472-2.838,3.086-5.836,4.128-7.61,1.3-2.21,2.24-3.9,3.1-5.441a28.179,28.179,0,0,0,2.245-4.819l6.521,3.829c-.883,1.089-2.034,2.8-3.043,4.352-.419.629-.823,1.318-1.227,2.006,2.9,1.609,6.974,3.8,10.006,5.194l-2.824,5.307c-3.047-1.448-7.226-3.707-10.13-5.314-1.1,2.035-2.4,4.583-3.615,6.986a32.18,32.18,0,0,1,7.2,12.461Zm-8.717-15.1a19.024,19.024,0,0,0-2.553-1.791c-2.282-1.339-4.178-1.43-4.943-.126-.957,1.63.511,3.029,2.467,4.177,2.137,1.255,3.285.711,4.646-1.607Z" fill="#60a484"/>
          <path id="パス_2" data-name="パス 2" d="M304.277,571.151a47.549,47.549,0,0,0-1.882,5.1,9.687,9.687,0,0,1,7.87-2.865c4.5.635,7.506,5.455,6.5,12.553-1.265,8.97-7.311,12.642-16.155,13.01l-2.262-4.811c7.223-.113,12.169-1.484,13.219-8.932.671-4.754-.6-7.2-2.819-7.509-3.582-.505-7.4,4.58-7.983,8.7a26.042,26.042,0,0,0-.235,3.039l-4.735-.345a36.776,36.776,0,0,1,.344-5.414,76.077,76.077,0,0,1,2.236-9.9,31.879,31.879,0,0,0,.764-3.577Z" fill="#60a484"/>
          <path id="パス_3" data-name="パス 3" d="M349.365,570.841a67.413,67.413,0,0,1-7.209,3.071c0,1.813.028,3.708,0,5.4a138.034,138.034,0,0,1-1.928,20.374l-7.369-.649c1.449-4.58,2.563-13.961,2.72-19.959.019-1,.069-2.047.048-3.035-.685.208-1.379.374-2.032.531-2.082.5-3.654.792-5.062,1.044l-1.625-6.045a43.484,43.484,0,0,0,5.3-.929c1.062-.255,2.154-.561,3.207-.857a14.962,14.962,0,0,0-.148-1.692,22.712,22.712,0,0,0-.966-4.562l7.609-1.223c-.022,1.343.04,3.4.062,4.39l0,.734c2-.828,3.989-1.737,5.913-2.717Zm2.7,12.869a15.1,15.1,0,0,0,.245,3.353c.4,1.674,1.719,2.481,5.271,1.627a52.868,52.868,0,0,0,8.451-2.937l1.256,6.306a68.431,68.431,0,0,1-8.315,2.6c-7.064,1.7-11.235-.021-12.226-4.145a29.562,29.562,0,0,1-.648-5.934Zm-5.626-9.575c2.269-.8,5.242-1.735,7.9-2.372,2.245-.54,4.725-1.006,7.233-1.35l1.29,5.909a60.334,60.334,0,0,0-7.15,1.157,63.644,63.644,0,0,0-7.9,2.372Z" fill="#60a484"/>
          <path id="パス_4" data-name="パス 4" d="M384.348,551.651A26.457,26.457,0,0,0,397.6,558.3l-.651,5.166q-1.832-.57-3.835-1.374c4.107,5.52,4.994,12.814-1.7,17.649-4.384,3.166-9.52,2.613-12.817-1.952a19.725,19.725,0,0,1-3.318-12.407,34.893,34.893,0,0,0-2.483,2.465c-.47.5-.784.881-1.294,1.487l-3.431-3.6a17.669,17.669,0,0,0,1.448-1.164,60.658,60.658,0,0,0,7.864-7.968l3.64,2.58a8.659,8.659,0,0,0-.8,1.522c-.773,2.809-.971,9.584,1.97,13.656a4.248,4.248,0,0,0,6.345,1.024c4.8-3.467,3.355-11.149-5.621-18.875-.5-.311-.975-.639-1.493-.975Zm3.722,1.929a33.238,33.238,0,0,0-4.147-2.846l1.776-2.349a46.183,46.183,0,0,1,4.1,2.839Zm2.264-3.1a36.066,36.066,0,0,0-4.154-2.8l1.679-2.32a38.259,38.259,0,0,1,4.234,2.745Z" fill="#60a484"/>
        </g>
      </g>
      <path id="パス_5" data-name="パス 5" d="M356.725,461.839a34.985,34.985,0,1,0-46.041,33.191l11.056,32.136L332.8,495.03A34.991,34.991,0,0,0,356.725,461.839Z" fill="#e16b2e"/>
      <circle id="楕円形_1" data-name="楕円形 1" cx="19.051" cy="19.051" r="19.051" transform="translate(302.689 442.855)" fill="#fff"/>
      <g id="グループ_9" data-name="グループ 9">
        <g id="グループ_5" data-name="グループ 5">
          <g id="グループ_3" data-name="グループ 3">
            <path id="パス_6" data-name="パス 6" d="M429.84,543.881l-8.457-2.864s1.37-10.839,2.033-11.559.552-5.375,6.237-8.182,7.77,3.664,7.828,3.472a13.218,13.218,0,0,1-.4,8.215C435.44,536.881,429.84,543.881,429.84,543.881Z" fill="#ebda21"/>
            <path id="パス_7" data-name="パス 7" d="M428.834,546.223l-8.535-3.015s-3.166,4.9-2.231,7.571a4.823,4.823,0,0,0,6.751,2.9C427.554,552.2,428.834,546.223,428.834,546.223Z" fill="#ebda21"/>
          </g>
          <g id="グループ_4" data-name="グループ 4">
            <path id="パス_8" data-name="パス 8" d="M422.712,516.792l-8.156-3.642s2.194-10.74,2.906-11.4.962-5.338,6.81-7.634,7.413,4.382,7.486,4.195a13.435,13.435,0,0,1-1.03,8.2C428.8,510.286,422.712,516.792,422.712,516.792Z" fill="#ebda21"/>
            <path id="パス_9" data-name="パス 9" d="M421.534,519.049l-8.22-3.8s-3.515,4.619-2.795,7.387,3.64,4.757,6.463,3.522S421.534,519.049,421.534,519.049Z" fill="#ebda21"/>
          </g>
        </g>
        <g id="グループ_8" data-name="グループ 8">
          <g id="グループ_6" data-name="グループ 6">
            <path id="パス_10" data-name="パス 10" d="M458.063,487.125l-8.923-.314s-1.8-10.775-1.373-11.656-1.015-5.306,3.624-9.628,8.495,1.277,8.5,1.077a13.214,13.214,0,0,1,1.977,7.983C461.417,478.812,458.063,487.125,458.063,487.125Z" fill="#ebda21"/>
            <path id="パス_11" data-name="パス 11" d="M457.772,489.658l-9.041-.437s-1.626,5.6.038,7.893a4.822,4.822,0,0,0,7.3.838C458.262,495.748,457.772,489.658,457.772,489.658Z" fill="#ebda21"/>
          </g>
          <g id="グループ_7" data-name="グループ 7">
            <path id="パス_12" data-name="パス 12" d="M443.454,463.226,434.6,462.08s-.983-10.919-.492-11.757-.611-5.389,4.33-9.268,8.36,2.068,8.376,1.868a13.429,13.429,0,0,1,1.369,8.149C447.416,455.245,443.454,463.226,443.454,463.226Z" fill="#ebda21"/>
            <path id="パス_13" data-name="パス 13" d="M442.975,465.725l-8.966-1.279s-2.04,5.434-.555,7.878,4.853,3.511,7.2,1.517S442.975,465.725,442.975,465.725Z" fill="#ebda21"/>
          </g>
        </g>
      </g>
      <g id="グループ_16" data-name="グループ 16">
        <g id="グループ_12" data-name="グループ 12">
          <g id="グループ_10" data-name="グループ 10">
            <path id="パス_14" data-name="パス 14" d="M214.661,545.21l8.421-2.968s-1.5-10.821-2.175-11.534-.619-5.367-6.338-8.1-7.724,3.76-7.785,3.569a13.217,13.217,0,0,0,.5,8.209C208.975,538.28,214.661,545.21,214.661,545.21Z" fill="#ebda21"/>
            <path id="パス_15" data-name="パス 15" d="M215.7,547.539l8.5-3.12s3.226,4.857,2.324,7.543a4.823,4.823,0,0,1-6.715,2.983C217.05,553.5,215.7,547.539,215.7,547.539Z" fill="#ebda21"/>
          </g>
          <g id="グループ_11" data-name="グループ 11">
            <path id="パス_16" data-name="パス 16" d="M221.454,518.035l8.11-3.742s-2.327-10.713-3.046-11.366-1.028-5.325-6.9-7.549-7.359,4.473-7.433,4.287a13.422,13.422,0,0,0,1.131,8.185C215.287,511.6,221.454,518.035,221.454,518.035Z" fill="#ebda21"/>
            <path id="パス_17" data-name="パス 17" d="M222.659,520.277l8.173-3.9s3.572,4.576,2.886,7.352-3.581,4.8-6.419,3.6S222.659,520.277,222.659,520.277Z" fill="#ebda21"/>
          </g>
        </g>
        <g id="グループ_15" data-name="グループ 15">
          <g id="グループ_13" data-name="グループ 13">
            <path id="パス_18" data-name="パス 18" d="M185.739,488.807l8.919-.424s1.667-10.8,1.229-11.672.949-5.319-3.743-9.583-8.479,1.382-8.482,1.182a13.221,13.221,0,0,0-1.878,8.007C182.283,480.536,185.739,488.807,185.739,488.807Z" fill="#ebda21"/>
            <path id="パス_19" data-name="パス 19" d="M186.061,491.336l9.035-.549s1.7,5.579.06,7.893a4.822,4.822,0,0,1-7.289.928C185.646,497.432,186.061,491.336,186.061,491.336Z" fill="#ebda21"/>
          </g>
          <g id="グループ_14" data-name="グループ 14">
            <path id="パス_20" data-name="パス 20" d="M200.052,464.729l8.843-1.255s.848-10.93.347-11.762.544-5.4-4.445-9.214-8.333,2.171-8.351,1.971a13.42,13.42,0,0,0-1.268,8.165C195.992,456.8,200.052,464.729,200.052,464.729Z" fill="#ebda21"/>
            <path id="パス_21" data-name="パス 21" d="M200.562,467.222l8.95-1.39s2.106,5.409.652,7.871-4.81,3.571-7.183,1.606S200.562,467.222,200.562,467.222Z" fill="#ebda21"/>
          </g>
        </g>
      </g>
    </g>
    <path id="パス_22" data-name="パス 22" d="M414.176,578.219A146.26,146.26,0,0,1,233.3,581.373" fill="none" stroke="#d6672f" stroke-linecap="round" stroke-miterlimit="10" stroke-width="4" stroke-dasharray="10 10"/>
    <path id="パス_23" data-name="パス 23" d="M386.4,530.166a94.02,94.02,0,0,1-129.311,0" fill="none" stroke="#d6672f" stroke-linecap="round" stroke-miterlimit="10" stroke-width="4" stroke-dasharray="10 10"/>
  </g>
</svg>
